<?xml version="1.0" encoding="UTF-8" standalone="no"?>
<!-- Created with Inkscape (http://www.inkscape.org/) -->

<svg
   xmlns:dc="http://purl.org/dc/elements/1.1/"
   xmlns:cc="http://creativecommons.org/ns#"
   xmlns:rdf="http://www.w3.org/1999/02/22-rdf-syntax-ns#"
   xmlns:svg="http://www.w3.org/2000/svg"
   xmlns="http://www.w3.org/2000/svg"
   xmlns:xlink="http://www.w3.org/1999/xlink"
   xmlns:sodipodi="http://sodipodi.sourceforge.net/DTD/sodipodi-0.dtd"
   xmlns:inkscape="http://www.inkscape.org/namespaces/inkscape"
   width="48px"
   height="48px"
   id="svg7387"
   sodipodi:version="0.32"
   inkscape:version="0.48.3.1 r9886"
   sodipodi:docname="base-unknown.svg"
   inkscape:output_extension="org.inkscape.output.svg.inkscape"
   version="1.1">
  <defs
     id="defs7389">
    <inkscape:perspective
       sodipodi:type="inkscape:persp3d"
       inkscape:vp_x="0 : 24 : 1"
       inkscape:vp_y="0 : 1000 : 0"
       inkscape:vp_z="48 : 24 : 1"
       inkscape:persp3d-origin="24 : 16 : 1"
       id="perspective34" />
    <radialGradient
       inkscape:collect="always"
       xlink:href="#linearGradient11494"
       id="radialGradient3213"
       gradientUnits="userSpaceOnUse"
       gradientTransform="matrix(1.341804,0,0,1.341804,-9.425986,-5.222852)"
       cx="27.577173"
       cy="15.048258"
       fx="27.577173"
       fy="15.048258"
       r="3.8335034" />
    <linearGradient
       id="linearGradient11494"
       inkscape:collect="always">
      <stop
         id="stop11496"
         offset="0"
         style="stop-color:#ef2929;stop-opacity:1;" />
      <stop
         id="stop11498"
         offset="1"
         style="stop-color:#ef2929;stop-opacity:0;" />
    </linearGradient>
    <radialGradient
       inkscape:collect="always"
       xlink:href="#linearGradient11494"
       id="radialGradient3211"
       gradientUnits="userSpaceOnUse"
       gradientTransform="matrix(1.478479,0,0,1.478479,-13.1951,-7.329062)"
       cx="27.577173"
       cy="15.258821"
       fx="27.577173"
       fy="15.258821"
       r="3.8335034" />
    <linearGradient
       id="linearGradient2660">
      <stop
         style="stop-color:#edeeec;stop-opacity:1;"
         offset="0"
         id="stop2662" />
      <stop
         style="stop-color:#babdb6;stop-opacity:1;"
         offset="1"
         id="stop2664" />
    </linearGradient>
    <radialGradient
       inkscape:collect="always"
       xlink:href="#linearGradient2660"
       id="radialGradient3209"
       gradientUnits="userSpaceOnUse"
       gradientTransform="matrix(4.072994,0,0,2.874492,-48.88488,-43.21542)"
       cx="17.62042"
       cy="21.610504"
       fx="17.62042"
       fy="21.610504"
       r="7.9999997" />
    <linearGradient
       id="linearGradient15653">
      <stop
         style="stop-color:#f0f1ee;stop-opacity:1;"
         offset="0"
         id="stop15655" />
      <stop
         style="stop-color:#d5d9d1;stop-opacity:1;"
         offset="1"
         id="stop15657" />
    </linearGradient>
    <radialGradient
       inkscape:collect="always"
       xlink:href="#linearGradient15653"
       id="radialGradient3207"
       gradientUnits="userSpaceOnUse"
       gradientTransform="matrix(1.616548,0,0,1.708051,-14.02647,-8.007523)"
       cx="22.75"
       cy="10.250003"
       fx="22.75"
       fy="10.250003"
       r="19.875" />
    <linearGradient
       inkscape:collect="always"
       id="linearGradient15679">
      <stop
         style="stop-color:#000000;stop-opacity:1;"
         offset="0"
         id="stop15681" />
      <stop
         style="stop-color:#000000;stop-opacity:0;"
         offset="1"
         id="stop15683" />
    </linearGradient>
    <radialGradient
       inkscape:collect="always"
       xlink:href="#linearGradient15679"
       id="radialGradient15685"
       cx="23.3125"
       cy="40.9375"
       fx="23.3125"
       fy="40.9375"
       r="17.1875"
       gradientTransform="matrix(1,0,0,0.316364,0,27.98636)"
       gradientUnits="userSpaceOnUse" />
    <linearGradient
       id="linearGradient3954">
      <stop
         stop-color="#ffffff"
         id="stop3956"
         offset="0" />
      <stop
         stop-color="#ffffff"
         stop-opacity="0"
         id="stop3958"
         offset="1" />
    </linearGradient>
    <radialGradient
       inkscape:collect="always"
       xlink:href="#linearGradient3954"
       id="radialGradient3062"
       gradientUnits="userSpaceOnUse"
       gradientTransform="matrix(-0.13153431,0,0,-0.05328544,57.837077,11.268578)"
       cx="256.3291"
       cy="61.007351"
       fx="256.3291"
       fy="61.007351"
       r="240" />
    <linearGradient
       id="linearGradient3085">
      <stop
         stop-color="#ffffff"
         id="stop3087"
         offset="0" />
      <stop
         stop-color="#ffffff"
         stop-opacity="0"
         id="stop3089"
         offset="1" />
    </linearGradient>
    <radialGradient
       inkscape:collect="always"
       xlink:href="#linearGradient2660"
       id="radialGradient3802"
       gradientUnits="userSpaceOnUse"
       gradientTransform="matrix(4.0986091,0,0,2.874492,-48.714322,-42.71542)"
       cx="17.62042"
       cy="21.610504"
       fx="17.62042"
       fy="21.610504"
       r="7.9999997" />
    <radialGradient
       inkscape:collect="always"
       xlink:href="#linearGradient15653"
       id="radialGradient3806"
       gradientUnits="userSpaceOnUse"
       gradientTransform="matrix(1.6267145,0,0,1.708051,-13.636687,-7.507523)"
       cx="22.75"
       cy="10.250003"
       fx="22.75"
       fy="10.250003"
       r="19.875" />
  </defs>
  <sodipodi:namedview
     id="base"
     pagecolor="#ffffff"
     bordercolor="#666666"
     borderopacity="1.0"
     inkscape:pageopacity="0.0"
     inkscape:pageshadow="2"
     inkscape:zoom="7.54"
     inkscape:cx="14.88322"
     inkscape:cy="20.640252"
     inkscape:current-layer="g3215"
     showgrid="true"
     inkscape:grid-bbox="true"
     inkscape:document-units="px"
     inkscape:window-width="1920"
     inkscape:window-height="1025"
     inkscape:window-x="-2"
     inkscape:window-y="-3"
     inkscape:window-maximized="1"
     showguides="true"
     inkscape:guide-bbox="true" />
  <metadata
     id="metadata7392">
    <rdf:RDF>
      <cc:Work
         rdf:about="">
        <dc:format>image/svg+xml</dc:format>
        <dc:type
           rdf:resource="http://purl.org/dc/dcmitype/StillImage" />
      </cc:Work>
    </rdf:RDF>
  </metadata>
  <g
     id="layer1"
     inkscape:label="Layer 1"
     inkscape:groupmode="layer">
    <path
       sodipodi:type="arc"
       style="opacity:0.36931817;fill:url(#radialGradient15685);fill-opacity:1;fill-rule:nonzero;stroke:none;stroke-width:1.00000024;stroke-linecap:round;stroke-linejoin:round;marker:none;marker-start:none;marker-mid:none;marker-end:none;stroke-miterlimit:4;stroke-dasharray:none;stroke-dashoffset:0;stroke-opacity:1;visibility:visible;display:block;overflow:visible"
       id="path15677"
       sodipodi:cx="23.3125"
       sodipodi:cy="40.9375"
       sodipodi:rx="17.1875"
       sodipodi:ry="5.4375"
       d="M 40.5,40.9375 A 17.1875,5.4375 0 1 1 6.125,40.9375 A 17.1875,5.4375 0 1 1 40.5,40.9375 z"
       transform="translate(-0.125151,0.625)" />
    <g
       id="g3215"
       transform="translate(-1.5095767e-4,0)">
      <path
         inkscape:connector-curvature="0"
         sodipodi:nodetypes="ccccc"
         id="path15651"
         d="M 23.622642,3.5 C 16.175131,9.0765861 4.503151,12.5 4.503151,12.5 7.522018,38.25 24,44.5 24,44.5 c 0,0 16.22641,-6.5 19.49685,-32.375 0,0 -14.088046,-5.125 -19.874208,-8.625 z"
         style="fill:url(#radialGradient3806);fill-opacity:1;fill-rule:nonzero;stroke:#888a85;stroke-width:1.00000012;stroke-linecap:round;stroke-linejoin:round;stroke-miterlimit:4;stroke-opacity:1;stroke-dasharray:none;stroke-dashoffset:0;marker:none;visibility:visible;display:block;overflow:visible"
         inkscape:r_cx="true"
         inkscape:r_cy="true" />
      <path
         inkscape:connector-curvature="0"
         style="fill:none;stroke:#ffffff;stroke-width:1.00000024;stroke-linecap:round;stroke-linejoin:round;stroke-miterlimit:4;stroke-opacity:1;stroke-dasharray:none;stroke-dashoffset:0;marker:none;visibility:visible;display:block;overflow:visible"
         d="M 23.646377,4.789309 C 16.667263,10.015167 5.7293685,13.223272 5.7293685,13.223272 8.5583699,37.353777 23.960447,43.210696 23.960447,43.210696 c 0,0 15.245439,-6.091195 18.310189,-30.338839 0,0 -13.202006,-4.8026735 -18.624259,-8.082548 z"
         id="path15665"
         sodipodi:nodetypes="ccccc"
         inkscape:r_cx="true"
         inkscape:r_cy="true" />
      <path
         inkscape:connector-curvature="0"
         inkscape:r_cy="true"
         inkscape:r_cx="true"
         sodipodi:nodetypes="cccc"
         id="path15667"
         d="m 23.504896,7.5 0,33 c 0,0 -12.395928,-5.259424 -16.1006234,-26 5.2830164,-0.875 16.1006234,-7 16.1006234,-7 z"
         style="fill:url(#radialGradient3802);fill-opacity:1;fill-rule:nonzero;stroke:none;stroke-width:1.00000024;marker:none;visibility:visible;display:block;overflow:visible" />
      <path
         stroke-miterlimit="4"
         id="path3903"
         d="m 31.123025,17.851238 a 7.0739776,4.5847472 0 1 1 -6.1e-5,-0.0218"
         inkscape:connector-curvature="0"
         style="opacity:0;fill:#ffffff;fill-opacity:0.60355003;stroke-width:0.2;stroke-miterlimit:4" />
      <path
         inkscape:connector-curvature="0"
         style="fill:#ffa500;stroke:#000000;stroke-width:0.526;stroke-miterlimit:4;stroke-dasharray:none;fill-opacity:1"
         d="m 25.924347,26.024175 -5.029413,0.0011 c -6e-6,-0.812036 0.23928,-1.471299 0.423459,-1.977793 0.184169,-0.506475 0.458338,-0.969006 0.822508,-1.387594 0.364161,-0.418571 1.182488,-1.155279 2.454981,-2.210111 0.678091,-0.552517 1.017144,-1.058997 1.01715,-1.519449 -6e-6,-0.460429 -0.136051,-0.818315 -0.408114,-1.073664 -0.272084,-0.255321 -0.684388,-0.382986 -1.236909,-0.382998 -0.594392,1.2e-5 -1.086224,0.196744 -1.475494,0.590197 -0.389289,0.393483 -0.638347,1.079955 -0.747169,2.059419 l -4.872285,-0.602757 c 0.167427,-1.79151 0.818321,-3.233522 1.952681,-4.326036 1.134349,-1.092474 2.873552,-1.638722 5.217613,-1.638743 1.825004,2.1e-5 3.298407,0.380928 4.42022,1.142724 1.52362,1.029732 2.285439,2.402672 2.28545,4.118841 -1.1e-5,0.711603 -0.196749,1.398075 -0.590198,2.05942 -0.393481,0.661372 -1.197158,1.469231 -2.41103,2.423582 -0.919137,0.522552 -1.763313,1.445861 -1.785058,1.908017 l -0.03841,0.81576 z m -5.045466,1.746672 5.110876,0 0,4.508119 -5.110876,0 0,-4.508119 z"
         id="QuestionMark" />
      <path
         inkscape:connector-curvature="0"
         style="fill:none;stroke:#ffffff;stroke-width:0.54105687;stroke-miterlimit:4;stroke-opacity:0.41304351;stroke-dasharray:none"
         d="m 25.418597,25.547745 -3.891176,-0.05073 c 0.220614,-1.998432 1.63031,-3.215335 3.126798,-4.393059 0.650673,-0.500567 1.408326,-1.288531 1.511775,-1.964464 -0.06993,-1.685623 -1.151321,-2.272341 -2.362127,-2.15969 -0.570359,1.1e-5 -1.120368,0.167608 -1.493899,0.524068 -0.373547,0.356485 -0.80088,0.908083 -1.008743,2.002474 l -3.806762,-0.479721 c 0.419262,-1.726575 0.958937,-2.818045 1.633662,-3.44555 1.077311,-1.001919 2.757364,-1.484643 5.006647,-1.484662 1.751212,1.9e-5 3.13186,0.444652 4.208314,1.134821 1.306851,1.139933 1.864164,2.025467 1.864174,3.580276 -1e-5,0.644695 -0.240514,1.370132 -0.618055,1.969295 -0.843062,1.013227 -1.241457,1.39745 -2.675591,2.454483 -0.859136,0.695795 -1.476304,1.027193 -1.495017,2.312459 z m -3.991481,2.718356 4.002524,0.03318 0.01854,3.473823 -4.039607,0.0146 z"
         id="QuestionMark-68"
         sodipodi:nodetypes="cccccsccsccccccccccc" />
    </g>
  </g>
</svg>
